<mxfile host="app.diagrams.net" agent="Mozilla/5.0 (Windows NT 10.0; Win64; x64) AppleWebKit/537.36 (KHTML, like Gecko) Chrome/140.0.0.0 Safari/537.36 Edg/140.0.0.0" version="28.2.1">
  <diagram id="LQW1T4Z_xZJtXYSXWv7J" name="ページ1">
    <mxGraphModel dx="1364" dy="317" grid="1" gridSize="10" guides="1" tooltips="1" connect="1" arrows="1" fold="1" page="1" pageScale="1" pageWidth="827" pageHeight="1169" math="0" shadow="0">
      <root>
        <mxCell id="0" />
        <mxCell id="1" parent="0" />
        <mxCell id="vQSmGdzxmox5NHA2EL66-3" value="" style="shape=umlLifeline;perimeter=lifelinePerimeter;whiteSpace=wrap;html=1;container=1;dropTarget=0;collapsible=0;recursiveResize=0;outlineConnect=0;portConstraint=eastwest;newEdgeStyle={&quot;curved&quot;:0,&quot;rounded&quot;:0};participant=umlActor;" vertex="1" parent="1">
          <mxGeometry x="80" y="60" width="20" height="300" as="geometry" />
        </mxCell>
        <mxCell id="vQSmGdzxmox5NHA2EL66-4" value="" style="html=1;points=[[0,0,0,0,5],[0,1,0,0,-5],[1,0,0,0,5],[1,1,0,0,-5]];perimeter=orthogonalPerimeter;outlineConnect=0;targetShapes=umlLifeline;portConstraint=eastwest;newEdgeStyle={&quot;curved&quot;:0,&quot;rounded&quot;:0};" vertex="1" parent="vQSmGdzxmox5NHA2EL66-3">
          <mxGeometry x="5" y="70" width="10" height="100" as="geometry" />
        </mxCell>
        <mxCell id="vQSmGdzxmox5NHA2EL66-31" value="" style="html=1;points=[[0,0,0,0,5],[0,1,0,0,-5],[1,0,0,0,5],[1,1,0,0,-5]];perimeter=orthogonalPerimeter;outlineConnect=0;targetShapes=umlLifeline;portConstraint=eastwest;newEdgeStyle={&quot;curved&quot;:0,&quot;rounded&quot;:0};" vertex="1" parent="vQSmGdzxmox5NHA2EL66-3">
          <mxGeometry x="5" y="190" width="10" height="100" as="geometry" />
        </mxCell>
        <mxCell id="vQSmGdzxmox5NHA2EL66-7" value="" style="shape=umlLifeline;perimeter=lifelinePerimeter;whiteSpace=wrap;html=1;container=1;dropTarget=0;collapsible=0;recursiveResize=0;outlineConnect=0;portConstraint=eastwest;newEdgeStyle={&quot;curved&quot;:0,&quot;rounded&quot;:0};participant=umlBoundary;fillColor=#d5e8d4;strokeColor=#82b366;" vertex="1" parent="1">
          <mxGeometry x="180" y="60" width="50" height="300" as="geometry" />
        </mxCell>
        <mxCell id="vQSmGdzxmox5NHA2EL66-16" value="" style="html=1;points=[[0,0,0,0,5],[0,1,0,0,-5],[1,0,0,0,5],[1,1,0,0,-5]];perimeter=orthogonalPerimeter;outlineConnect=0;targetShapes=umlLifeline;portConstraint=eastwest;newEdgeStyle={&quot;curved&quot;:0,&quot;rounded&quot;:0};" vertex="1" parent="vQSmGdzxmox5NHA2EL66-7">
          <mxGeometry x="20" y="90" width="10" height="70" as="geometry" />
        </mxCell>
        <mxCell id="vQSmGdzxmox5NHA2EL66-8" value="" style="shape=umlLifeline;perimeter=lifelinePerimeter;whiteSpace=wrap;html=1;container=1;dropTarget=0;collapsible=0;recursiveResize=0;outlineConnect=0;portConstraint=eastwest;newEdgeStyle={&quot;curved&quot;:0,&quot;rounded&quot;:0};participant=umlBoundary;fillColor=#d5e8d4;strokeColor=#82b366;" vertex="1" parent="1">
          <mxGeometry x="310" y="60" width="50" height="300" as="geometry" />
        </mxCell>
        <mxCell id="vQSmGdzxmox5NHA2EL66-28" value="" style="html=1;points=[[0,0,0,0,5],[0,1,0,0,-5],[1,0,0,0,5],[1,1,0,0,-5]];perimeter=orthogonalPerimeter;outlineConnect=0;targetShapes=umlLifeline;portConstraint=eastwest;newEdgeStyle={&quot;curved&quot;:0,&quot;rounded&quot;:0};" vertex="1" parent="vQSmGdzxmox5NHA2EL66-8">
          <mxGeometry x="20" y="105" width="10" height="40" as="geometry" />
        </mxCell>
        <mxCell id="vQSmGdzxmox5NHA2EL66-32" value="" style="html=1;points=[[0,0,0,0,5],[0,1,0,0,-5],[1,0,0,0,5],[1,1,0,0,-5]];perimeter=orthogonalPerimeter;outlineConnect=0;targetShapes=umlLifeline;portConstraint=eastwest;newEdgeStyle={&quot;curved&quot;:0,&quot;rounded&quot;:0};" vertex="1" parent="vQSmGdzxmox5NHA2EL66-8">
          <mxGeometry x="20" y="210" width="10" height="65" as="geometry" />
        </mxCell>
        <mxCell id="vQSmGdzxmox5NHA2EL66-9" value="" style="shape=umlLifeline;perimeter=lifelinePerimeter;whiteSpace=wrap;html=1;container=1;dropTarget=0;collapsible=0;recursiveResize=0;outlineConnect=0;portConstraint=eastwest;newEdgeStyle={&quot;curved&quot;:0,&quot;rounded&quot;:0};participant=umlControl;fillColor=#f8cecc;strokeColor=#b85450;" vertex="1" parent="1">
          <mxGeometry x="430" y="60" width="40" height="300" as="geometry" />
        </mxCell>
        <mxCell id="vQSmGdzxmox5NHA2EL66-35" value="" style="html=1;points=[[0,0,0,0,5],[0,1,0,0,-5],[1,0,0,0,5],[1,1,0,0,-5]];perimeter=orthogonalPerimeter;outlineConnect=0;targetShapes=umlLifeline;portConstraint=eastwest;newEdgeStyle={&quot;curved&quot;:0,&quot;rounded&quot;:0};" vertex="1" parent="vQSmGdzxmox5NHA2EL66-9">
          <mxGeometry x="15" y="220" width="10" height="50" as="geometry" />
        </mxCell>
        <mxCell id="vQSmGdzxmox5NHA2EL66-10" value="" style="shape=umlLifeline;perimeter=lifelinePerimeter;whiteSpace=wrap;html=1;container=1;dropTarget=0;collapsible=0;recursiveResize=0;outlineConnect=0;portConstraint=eastwest;newEdgeStyle={&quot;curved&quot;:0,&quot;rounded&quot;:0};participant=umlEntity;fillColor=#dae8fc;strokeColor=#6c8ebf;" vertex="1" parent="1">
          <mxGeometry x="550" y="60" width="40" height="300" as="geometry" />
        </mxCell>
        <mxCell id="vQSmGdzxmox5NHA2EL66-36" value="" style="html=1;points=[[0,0,0,0,5],[0,1,0,0,-5],[1,0,0,0,5],[1,1,0,0,-5]];perimeter=orthogonalPerimeter;outlineConnect=0;targetShapes=umlLifeline;portConstraint=eastwest;newEdgeStyle={&quot;curved&quot;:0,&quot;rounded&quot;:0};" vertex="1" parent="vQSmGdzxmox5NHA2EL66-10">
          <mxGeometry x="15" y="235" width="10" height="25" as="geometry" />
        </mxCell>
        <mxCell id="vQSmGdzxmox5NHA2EL66-11" value="" style="html=1;points=[[0,0,0,0,5],[0,1,0,0,-5],[1,0,0,0,5],[1,1,0,0,-5]];perimeter=orthogonalPerimeter;outlineConnect=0;targetShapes=umlLifeline;portConstraint=eastwest;newEdgeStyle={&quot;curved&quot;:0,&quot;rounded&quot;:0};" vertex="1" parent="1">
          <mxGeometry x="120" y="420" width="10" height="80" as="geometry" />
        </mxCell>
        <mxCell id="vQSmGdzxmox5NHA2EL66-12" value="活性区間&lt;div&gt;Activaton Bar&lt;/div&gt;" style="text;html=1;align=center;verticalAlign=middle;whiteSpace=wrap;rounded=0;" vertex="1" parent="1">
          <mxGeometry x="130" y="420" width="90" height="30" as="geometry" />
        </mxCell>
        <mxCell id="vQSmGdzxmox5NHA2EL66-13" value="" style="endArrow=none;dashed=1;html=1;rounded=0;" edge="1" parent="1">
          <mxGeometry width="50" height="50" relative="1" as="geometry">
            <mxPoint x="260" y="500" as="sourcePoint" />
            <mxPoint x="260" y="420" as="targetPoint" />
          </mxGeometry>
        </mxCell>
        <mxCell id="vQSmGdzxmox5NHA2EL66-14" value="生存線&lt;div&gt;Life Line&lt;/div&gt;" style="text;html=1;align=center;verticalAlign=middle;whiteSpace=wrap;rounded=0;" vertex="1" parent="1">
          <mxGeometry x="260" y="420" width="90" height="30" as="geometry" />
        </mxCell>
        <mxCell id="vQSmGdzxmox5NHA2EL66-15" value="" style="endArrow=classic;html=1;rounded=0;" edge="1" parent="1" source="vQSmGdzxmox5NHA2EL66-4">
          <mxGeometry width="50" height="50" relative="1" as="geometry">
            <mxPoint x="120" y="160" as="sourcePoint" />
            <mxPoint x="199.9999999999999" y="150" as="targetPoint" />
          </mxGeometry>
        </mxCell>
        <mxCell id="vQSmGdzxmox5NHA2EL66-17" value="メニュー画面" style="text;html=1;align=center;verticalAlign=middle;whiteSpace=wrap;rounded=0;" vertex="1" parent="1">
          <mxGeometry x="160" y="100" width="90" height="30" as="geometry" />
        </mxCell>
        <mxCell id="vQSmGdzxmox5NHA2EL66-18" value="学生登録画面" style="text;html=1;align=center;verticalAlign=middle;whiteSpace=wrap;rounded=0;" vertex="1" parent="1">
          <mxGeometry x="290" y="100" width="90" height="30" as="geometry" />
        </mxCell>
        <mxCell id="vQSmGdzxmox5NHA2EL66-19" value="学生登録情報" style="text;html=1;align=center;verticalAlign=middle;whiteSpace=wrap;rounded=0;" vertex="1" parent="1">
          <mxGeometry x="405" y="100" width="90" height="30" as="geometry" />
        </mxCell>
        <mxCell id="vQSmGdzxmox5NHA2EL66-20" value="学生オブジェクト" style="text;html=1;align=center;verticalAlign=middle;whiteSpace=wrap;rounded=0;" vertex="1" parent="1">
          <mxGeometry x="517.5" y="100" width="105" height="30" as="geometry" />
        </mxCell>
        <mxCell id="vQSmGdzxmox5NHA2EL66-21" value="" style="endArrow=classic;html=1;rounded=0;" edge="1" parent="1">
          <mxGeometry width="50" height="50" relative="1" as="geometry">
            <mxPoint x="30" y="80" as="sourcePoint" />
            <mxPoint x="30" y="390.91952619881465" as="targetPoint" />
          </mxGeometry>
        </mxCell>
        <mxCell id="vQSmGdzxmox5NHA2EL66-22" value="時間の流れ" style="text;html=1;align=center;verticalAlign=middle;whiteSpace=wrap;rounded=0;direction=east;flipV=1;" vertex="1" parent="1">
          <mxGeometry x="-30" y="400" width="120" height="20" as="geometry" />
        </mxCell>
        <mxCell id="vQSmGdzxmox5NHA2EL66-23" value="&lt;font style=&quot;font-size: 11px;&quot;&gt;学生登録を選択()&lt;/font&gt;" style="text;html=1;align=center;verticalAlign=middle;whiteSpace=wrap;rounded=0;" vertex="1" parent="1">
          <mxGeometry x="100" y="130" width="90" height="20" as="geometry" />
        </mxCell>
        <mxCell id="vQSmGdzxmox5NHA2EL66-24" value="&lt;font style=&quot;font-size: 11px;&quot;&gt;操作()&lt;/font&gt;&lt;div&gt;&lt;font style=&quot;font-size: 11px;&quot;&gt;Method&lt;/font&gt;&lt;/div&gt;" style="text;html=1;align=center;verticalAlign=middle;whiteSpace=wrap;rounded=0;" vertex="1" parent="1">
          <mxGeometry x="350" y="425" width="90" height="20" as="geometry" />
        </mxCell>
        <mxCell id="vQSmGdzxmox5NHA2EL66-26" value="&lt;span style=&quot;font-size: 11px;&quot;&gt;メッセージ&lt;/span&gt;&lt;div&gt;&lt;span style=&quot;font-size: 11px;&quot;&gt;Message&lt;/span&gt;&lt;/div&gt;" style="text;html=1;align=center;verticalAlign=middle;whiteSpace=wrap;rounded=0;" vertex="1" parent="1">
          <mxGeometry x="470" y="425" width="90" height="20" as="geometry" />
        </mxCell>
        <mxCell id="vQSmGdzxmox5NHA2EL66-27" value="" style="endArrow=classic;html=1;rounded=0;" edge="1" parent="1">
          <mxGeometry width="50" height="50" relative="1" as="geometry">
            <mxPoint x="365" y="459.66" as="sourcePoint" />
            <mxPoint x="425" y="459.66" as="targetPoint" />
          </mxGeometry>
        </mxCell>
        <mxCell id="vQSmGdzxmox5NHA2EL66-29" value="" style="endArrow=classic;html=1;rounded=0;entryX=-0.159;entryY=0.005;entryDx=0;entryDy=0;entryPerimeter=0;" edge="1" parent="1" source="vQSmGdzxmox5NHA2EL66-16" target="vQSmGdzxmox5NHA2EL66-28">
          <mxGeometry width="50" height="50" relative="1" as="geometry">
            <mxPoint x="220" y="180" as="sourcePoint" />
            <mxPoint x="270" y="160" as="targetPoint" />
          </mxGeometry>
        </mxCell>
        <mxCell id="vQSmGdzxmox5NHA2EL66-30" value="&lt;span style=&quot;font-size: 11px;&quot;&gt;表示()&lt;/span&gt;" style="text;html=1;align=center;verticalAlign=middle;whiteSpace=wrap;rounded=0;" vertex="1" parent="1">
          <mxGeometry x="220" y="130" width="90" height="20" as="geometry" />
        </mxCell>
        <mxCell id="vQSmGdzxmox5NHA2EL66-37" value="" style="endArrow=classic;html=1;rounded=0;entryX=0;entryY=0;entryDx=0;entryDy=5;entryPerimeter=0;" edge="1" parent="1" source="vQSmGdzxmox5NHA2EL66-31" target="vQSmGdzxmox5NHA2EL66-32">
          <mxGeometry width="50" height="50" relative="1" as="geometry">
            <mxPoint x="120" y="289.8" as="sourcePoint" />
            <mxPoint x="238.00000000000003" y="289.8" as="targetPoint" />
          </mxGeometry>
        </mxCell>
        <mxCell id="vQSmGdzxmox5NHA2EL66-38" value="" style="endArrow=classic;html=1;rounded=0;entryX=0;entryY=0;entryDx=0;entryDy=5;entryPerimeter=0;exitX=0.991;exitY=0.221;exitDx=0;exitDy=0;exitPerimeter=0;" edge="1" parent="1" source="vQSmGdzxmox5NHA2EL66-32" target="vQSmGdzxmox5NHA2EL66-35">
          <mxGeometry width="50" height="50" relative="1" as="geometry">
            <mxPoint x="323.9899999999998" y="289.99500000000006" as="sourcePoint" />
            <mxPoint x="429.9999999999998" y="291.54" as="targetPoint" />
          </mxGeometry>
        </mxCell>
        <mxCell id="vQSmGdzxmox5NHA2EL66-39" value="" style="endArrow=classic;html=1;rounded=0;entryX=0;entryY=0;entryDx=0;entryDy=5;entryPerimeter=0;exitX=0.847;exitY=0.373;exitDx=0;exitDy=0;exitPerimeter=0;" edge="1" parent="1" source="vQSmGdzxmox5NHA2EL66-35" target="vQSmGdzxmox5NHA2EL66-36">
          <mxGeometry width="50" height="50" relative="1" as="geometry">
            <mxPoint x="444" y="289.54" as="sourcePoint" />
            <mxPoint x="550" y="291.54" as="targetPoint" />
          </mxGeometry>
        </mxCell>
        <mxCell id="vQSmGdzxmox5NHA2EL66-40" value="&lt;span style=&quot;font-size: 11px;&quot;&gt;学生データ入力()&lt;/span&gt;" style="text;html=1;align=center;verticalAlign=middle;whiteSpace=wrap;rounded=0;" vertex="1" parent="1">
          <mxGeometry x="100" y="260" width="90" height="20" as="geometry" />
        </mxCell>
        <mxCell id="vQSmGdzxmox5NHA2EL66-41" value="&lt;span style=&quot;font-size: 11px;&quot;&gt;起動()&lt;/span&gt;" style="text;html=1;align=center;verticalAlign=middle;whiteSpace=wrap;rounded=0;" vertex="1" parent="1">
          <mxGeometry x="350" y="270" width="90" height="20" as="geometry" />
        </mxCell>
        <mxCell id="vQSmGdzxmox5NHA2EL66-42" value="&lt;span style=&quot;font-size: 11px;&quot;&gt;学生データ登録()&lt;/span&gt;" style="text;html=1;align=center;verticalAlign=middle;whiteSpace=wrap;rounded=0;" vertex="1" parent="1">
          <mxGeometry x="470" y="280" width="90" height="20" as="geometry" />
        </mxCell>
      </root>
    </mxGraphModel>
  </diagram>
</mxfile>
